<?xml version="1.0"?>
<svg xmlns="http://www.w3.org/2000/svg" xmlns:xlink="http://www.w3.org/1999/xlink" version="1.1" id="Capa_1" x="0px" y="0px" viewBox="0 0 512 512" style="enable-background:new 0 0 512 512;" xml:space="preserve" width="512px" height="512px" class=""><g><path style="fill: rgb(13, 112, 178);" d="M413.5,512c-120.3,0-84,0-157.5,0H98.5c-51,0-87.001-49.799-71.1-98.101l36-115.599  c12.299-34.2,37.8-62.401,70.8-77.701h244.2c32.399,15.3,57.9,43.5,69.899,77.401L484.6,413.899  C500.501,462.201,464.5,512,413.5,512z" data-original="#0D70B2" class="" data-old_color="#074269"/><path style="fill: rgb(9, 92, 146);" d="M413.5,512c-120.3,0-84,0-157.5,0V220.599h122.401c32.399,15.3,57.9,43.5,69.899,77.401l36.3,115.899  C500.501,462.201,464.5,512,413.5,512z" data-original="#095C92" class="" data-old_color="#095C92"/><path style="fill: rgb(13, 112, 178);" d="M412.301,167.799L256,167.501l-156-0.3l96.901-136.594C211,11.706,232-0.293,256,0.005h1.8  c24.3,0.3,46.199,11.7,60.601,31.501L412.301,167.799z" data-original="#0D70B2" class="" data-old_color="#074269"/><g>
	<path style="fill: rgb(9, 92, 146);" d="M412.301,167.799L256,167.501V0.005h1.8c24.3,0.3,46.199,11.7,60.601,31.501L412.301,167.799z" data-original="#095C92" class="" data-old_color="#095C92"/>
	<path style="fill: rgb(9, 92, 146);" d="M421,193c0,10.201-4.2,25.201-23.101,39.901c-0.3,0-0.3,0-0.3,0.3L267.1,336.401   c-2.699,2.098-6,3.3-9.3,3.3c-0.601,0-1.199,0-1.8-0.3c-2.401-0.3-5.099-1.199-7.2-2.999L115.901,234.1c-0.3,0-0.3,0-0.3,0   l-0.3-0.3c0,0,0,0,0-0.3C95.2,218.8,91,203.499,91,193c0-9,2.999-17.701,9-25.8c15.901-21.301,47.701-33.9,81-41.1v39.899l75-0.298   l75-0.3v-39.3c33.9,7.2,66,20.099,81.599,41.699C418.001,175.599,421,184.301,421,193z" data-original="#095C92" class="" data-old_color="#095C92"/>
</g><path style="fill: rgb(8, 70, 156);" d="M421,193c0,10.201-4.2,25.201-23.101,39.901c-0.3,0-0.3,0-0.3,0.3L267.1,336.401  c-2.699,2.098-6,3.3-9.3,3.3c-0.601,0-1.199,0-1.8-0.3v-173.7l75-0.3v-39.3c33.9,7.2,66,20.099,81.599,41.699  C418.001,175.599,421,184.301,421,193z" data-original="#08469C" class="" data-old_color="#031826"/><path style="fill: rgb(254, 219, 171);" d="M331,126.101v39.3C329.2,206.5,296.499,238,256,238s-73.2-31.5-75-72.001V126.1  c26.4-5.7,53.401-8.101,75-8.101C277.301,118,304.6,120.401,331,126.101z" data-original="#FEDBAB" class="" data-old_color="#0B0B0B"/><path style="fill: rgb(254, 196, 120);" d="M331,126.101v39.3C329.2,206.5,296.499,238,256,238V118C277.301,118,304.6,120.401,331,126.101z" data-original="#FEC478" class="" data-old_color="#383838"/><path style="fill: rgb(23, 172, 232);" d="M346,310.001H166c-24.901,0-45,20.099-45,45V512h270V355.001C391,330.1,370.901,310.001,346,310.001z  " data-original="#17ACE8" class="" data-old_color="#D5D9DB"/><path style="fill: rgb(225, 228, 251);" d="M301,407c0,8.401-6.599,15-15,15h-60c-8.401,0-15-6.599-15-15s6.599-15,15-15h60  C294.401,392,301,398.599,301,407z" data-original="#E1E4FB" class="" data-old_color="#E1E4FB"/><path style="fill: rgb(22, 137, 252);" d="M391,355.001V512H256V310.001h90C370.901,310.001,391,330.1,391,355.001z" data-original="#1689FC" class="" data-old_color="#F9FAFC"/><path style="fill:#C5C9F7" d="M301,407c0,8.401-6.599,15-15,15h-30v-30h30C294.401,392,301,398.599,301,407z" data-original="#C5C9F7" class="active-path" data-old_color=" rgb(197, 201, 247)"/></g> </svg>
