<?xml version="1.0"?>
<svg xmlns="http://www.w3.org/2000/svg" xmlns:xlink="http://www.w3.org/1999/xlink" version="1.1" id="Layer_1" x="0px" y="0px" viewBox="0 0 512 512" style="enable-background:new 0 0 512 512;" xml:space="preserve" width="512px" height="512px" class=""><g><polygon style="fill:#4B5054" points="369.182,0 52.513,0 52.513,512 459.487,512 459.487,90.305 " data-original="#93C7EF" class="" data-old_color="#303335"/><polygon style="fill:#2E3135" points="369.182,0 256,0 256,512 459.487,512 459.487,90.305 " data-original="#78B9EB" class="" data-old_color="#1E2839"/><polygon style="fill:#4B5054" points="369.182,0 369.182,90.585 459.487,90.305 " data-original="#C9E3F7" class="active-path" data-old_color="#303335"/><path style="fill:#FFFFFF" d="M321.641,262.564v-39.385c0-36.194-29.447-65.641-65.641-65.641s-65.641,29.447-65.641,65.641v39.385  h-19.692v131.282h170.667V262.564H321.641z M229.744,223.179c0-14.478,11.779-26.256,26.256-26.256s26.256,11.779,26.256,26.256  v39.385h-52.513V223.179z" data-original="#FFFFFF" class=""/><rect x="236.308" y="308.513" style="fill:#2E3135" width="39.385" height="39.385" data-original="#78B9EB" class="" data-old_color="#1E2839"/></g> </svg>
